SplineFontDB: 3.2
FontName: Roland
FullName: Roland
FamilyName: Roland
Weight: Bold
Copyright: Copyright (c) 2020, Roland Bernard
UComments: "2020-8-28: Created with FontForge (http://fontforge.org)"
Version: 001.000
ItalicAngle: 0
UnderlinePosition: -100
UnderlineWidth: 50
Ascent: 800
Descent: 200
InvalidEm: 0
LayerCount: 2
Layer: 0 0 "Back" 1
Layer: 1 0 "Fore" 0
XUID: [1021 36 1614478912 13530823]
FSType: 0
OS2Version: 0
OS2_WeightWidthSlopeOnly: 0
OS2_UseTypoMetrics: 1
CreationTime: 1598626489
ModificationTime: 1599673268
PfmFamily: 17
TTFWeight: 1000
TTFWidth: 5
LineGap: 90
VLineGap: 0
OS2TypoAscent: 0
OS2TypoAOffset: 1
OS2TypoDescent: 0
OS2TypoDOffset: 1
OS2TypoLinegap: 90
OS2WinAscent: 0
OS2WinAOffset: 1
OS2WinDescent: 0
OS2WinDOffset: 1
HheadAscent: 0
HheadAOffset: 1
HheadDescent: 0
HheadDOffset: 1
OS2CapHeight: 750
OS2XHeight: 500
OS2Vendor: 'PfEd'
MarkAttachClasses: 1
DEI: 91125
LangName: 1033
Encoding: ISO8859-1
UnicodeInterp: none
NameList: AGL For New Fonts
DisplaySize: -48
AntiAlias: 1
FitToEm: 0
WinInfo: 0 30 12
BeginPrivate: 1
BlueValues 23 [-20 0 500 520 750 770]
EndPrivate
BeginChars: 256 83

StartChar: X
Encoding: 88 88 1
Width: 735
Flags: W
HStem: 0 21G<30 218.802 516.667 705.469> 730 20G<30 218.802 516.667 705.469>
LayerCount: 2
Fore
SplineSet
30 750 m 5
 205.46875 750 l 5
 367.734375 506.6015625 l 5
 530 750 l 5
 705.46875 750 l 5
 455.46875 375 l 5
 705.46875 0 l 5
 530 0 l 5
 367.734375 243.3984375 l 5
 205.46875 0 l 5
 30 0 l 5
 280 375 l 5
 30 750 l 5
EndSplineSet
EndChar

StartChar: Q
Encoding: 81 81 2
Width: 922
Flags: HW
LayerCount: 2
Fore
SplineSet
424 769.999023438 m 2xb8
 425 770 l 2
 642.263671875 770.100585938 820.001953125 592.263671875 820 375 c 2
 820 374 l 2
 819.999023438 291.453125 794.299804688 215.529296875 750.548828125 151.982421875 c 1
 902.53125 0 l 1
 697.46875 0 l 1x78
 648.017578125 49.451171875 l 1
 584.462890625 5.6953125 508.557617188 -20 426 -20 c 2
 425 -20 l 2
 207.9453125 -20 30.107421875 157.020507812 30.0009765625 374 c 2
 30 375 l 2
 29.892578125 592.061523438 207.01171875 769.899414062 424 769.999023438 c 2xb8
425 629.998046875 m 2
 288.802734375 630.004882812 179.993164062 511.197265625 180.001953125 375 c 2
 180.001953125 374 l 2
 180.010742188 237.877929688 288.862304688 119.995117188 425 120.001953125 c 2
 426 120.001953125 l 2xb8
 469.298828125 120.00390625 509.303710938 132.20703125 544.419921875 153.048828125 c 1
 402.88671875 294.58203125 l 1
 607.94921875 294.58203125 l 1
 642.763671875 259.767578125 l 1
 660.166015625 294.754882812 669.99609375 333.13671875 669.998046875 374 c 2
 669.998046875 375 l 2
 670.004882812 511.150390625 562.131835938 629.991210938 426 629.998046875 c 2
 425 629.998046875 l 2
EndSplineSet
EndChar

StartChar: e
Encoding: 101 101 3
Width: 620
Flags: W
HStem: -20 140.002<249.299 398.947> 180 140<209.875 410.125> 379.998 140.002<249.315 370.743>
CounterMasks: 1 e0
LayerCount: 2
Fore
SplineSet
310 520 m 2
 310.0546875 520 l 2
 458.258789062 519.985351562 580 398.209960938 580 250 c 2
 580 180 l 1
 209.875 180 l 1
 209.919921875 179.926757812 l 2
 231.243164062 144.8125 267.794921875 120.001953125 310 120.001953125 c 2
 335 120.001953125 l 2
 369.805664062 120.001953125 400.758789062 136.881835938 422.509765625 162.490234375 c 1
 525.583984375 59.4140625 l 1
 476.612304688 10.4423828125 409.114257812 -20 335 -20 c 2
 310 -20 l 2
 161.771484375 -20 39.96875 101.771484375 40 250 c 2
 40 250.116210938 l 2
 40.0322265625 398.291992188 161.810546875 520.014648438 310 520 c 2
310 379.998046875 m 1
 267.779296875 380.009765625 231.221679688 355.165039062 209.895507812 320.034179688 c 2
 209.875 320 l 1
 410.125 320 l 1
 410.110351562 320.0234375 l 2
 388.793945312 355.142578125 352.258789062 379.986328125 310.05859375 379.998046875 c 2
 310 379.998046875 l 1
EndSplineSet
EndChar

StartChar: exclam
Encoding: 33 33 4
Width: 300
Flags: W
HStem: -20 200<88.2613 211.739> 730 20G<75 225>
VStem: 50 200<18.2613 141.739> 75 150<250 750>
LayerCount: 2
Fore
SplineSet
75 250 m 1xd0
 75 750 l 1
 225 750 l 1
 225 250 l 1
 75 250 l 1xd0
50 80 m 0xe0
 50 135.228515625 94.771484375 180 150 180 c 0
 205.228515625 180 250 135.228515625 250 80 c 0
 250 24.771484375 205.228515625 -20 150 -20 c 0
 94.771484375 -20 50 24.771484375 50 80 c 0xe0
EndSplineSet
EndChar

StartChar: quotedbl
Encoding: 34 34 5
Width: 500
Flags: HW
HStem: 500 250<50 200 300 450>
VStem: 50 150<500 750> 300 150<500 750>
LayerCount: 2
Fore
SplineSet
50 500 m 1
 50 750 l 1
 200 750 l 1
 200 500 l 1
 50 500 l 1
300 500 m 5
 300 750 l 5
 450 750 l 5
 450 500 l 5
 300 500 l 5
EndSplineSet
EndChar

StartChar: numbersign
Encoding: 35 35 6
Width: 842
Flags: W
HStem: 0 21G<95 254.51 345 504.51> 180 140<76.666 155 354.51 405 604.51 682.844> 430 140<160 238.334 437.844 488.334 687.844 766.178> 730 20G<338.333 497.844 588.333 747.844>
LayerCount: 2
Fore
SplineSet
345 750 m 1
 497.84375 750 l 1
 437.84375 570 l 1
 535 570 l 1
 595 750 l 1
 747.84375 750 l 1
 687.84375 570 l 1
 812.84375 570 l 1
 766.177734375 430 l 1
 641.17578125 430 l 1
 604.509765625 320 l 1
 729.509765625 320 l 1
 682.84375 180 l 1
 557.84375 180 l 1
 497.84375 0 l 1
 345 0 l 1
 405 180 l 1
 307.84375 180 l 1
 247.84375 0 l 1
 95 0 l 1
 155 180 l 1
 30 180 l 1
 76.666015625 320 l 1
 201.66796875 320 l 1
 238.333984375 430 l 1
 113.333984375 430 l 1
 160 570 l 1
 285 570 l 1
 345 750 l 1
391.17578125 430 m 1
 354.509765625 320 l 1
 451.66796875 320 l 1
 488.333984375 430 l 1
 391.17578125 430 l 1
EndSplineSet
EndChar

StartChar: zero
Encoding: 48 48 7
Width: 640
Flags: HW
LayerCount: 2
Fore
SplineSet
320 770 m 0
 468.228515625 770 590 648.228515625 590 500 c 2
 590 250 l 2
 590 101.771484375 468.228515625 -20 320 -20 c 0
 171.771484375 -20 50 101.771484375 50 250 c 2
 50 500 l 2
 50 648.228515625 171.771484375 770 320 770 c 0
320 630 m 0
 252.837890625 630 200 567.162109375 200 500 c 2
 200 250 l 2
 200 182.837890625 252.837890625 120 320 120 c 0
 387.162109375 120 440 182.837890625 440 250 c 2
 440 500 l 2
 440 567.162109375 387.162109375 630 320 630 c 0
EndSplineSet
EndChar

StartChar: one
Encoding: 49 49 8
Width: 250
Flags: HW
LayerCount: 2
Fore
SplineSet
50 750 m 5
 200 750 l 5
 200 0 l 5
 50 0 l 5
 50 608.916015625 l 5
 50 608.986328125 l 5
 50 750 l 5
EndSplineSet
EndChar

StartChar: two
Encoding: 50 50 9
Width: 610
Flags: HW
LayerCount: 2
Fore
SplineSet
305 770 m 2
 305.103515625 770 l 2
 453.28515625 769.971679688 575 648.194335938 575 500 c 0
 575 433.147460938 550.224609375 371.682617188 509.4296875 324.337890625 c 2
 343.6640625 140 l 1
 555 140 l 1
 555 0 l 1
 41 0 l 1
 398.3125 419.818359375 l 2
 415.053710938 442.548828125 425 470.866210938 425 500 c 0
 425 567.127929688 372.216796875 629.967773438 305.103515625 630 c 2
 305 630 l 2
 237.837890625 630.032226562 185 567.162109375 185 500 c 1
 35 500 l 1
 35 648.228515625 156.771484375 770.028320312 305 770 c 2
EndSplineSet
EndChar

StartChar: three
Encoding: 51 51 10
Width: 620
Flags: HW
LayerCount: 2
Fore
SplineSet
267.5 770 m 2
 342.620117188 770 l 2
 470.083984375 770 575.028320312 664.977539062 575 537.5 c 2
 575 537.41015625 l 2
 574.986328125 474.467773438 539.362304688 417.032226562 498.1015625 375 c 1
 539.3828125 332.947265625 575 275.477539062 575 212.5 c 2
 575 212.404296875 l 2
 575 84.9541015625 470.02734375 -20 342.57421875 -20 c 2
 267.5 -20 l 2
 139.982421875 -20 35 84.982421875 35 212.5 c 1
 185 212.5 l 1
 185 166.047851562 221.047851562 120 267.5 120 c 2
 342.586914062 120 l 2
 388.975585938 120 424.986328125 166.033203125 425 212.43359375 c 2
 425 212.5 l 2
 425.013671875 258.952148438 388.952148438 305 342.5 305 c 2
 219.5 305 l 1
 219.5 445 l 1
 342.5 445 l 2
 388.923828125 445 424.977539062 490.993164062 425 537.416992188 c 2
 425 537.5 l 2
 425.022460938 583.938476562 388.97265625 630 342.540039062 630 c 2
 267.5 630 l 2
 221.047851562 630 185 583.952148438 185 537.5 c 1
 35 537.5 l 1
 35 665.017578125 139.982421875 770 267.5 770 c 2
EndSplineSet
EndChar

StartChar: four
Encoding: 52 52 11
Width: 610
Flags: HW
LayerCount: 2
Fore
SplineSet
65.50390625 750 m 1
 216.044921875 750 l 1
 190.177734375 454.359375 l 2
 190.069335938 452.90234375 190 451.446289062 190 450 c 0
 190 421.497070312 211.497070312 390 240 390 c 2
 410 390 l 1
 410 750 l 1
 560 750 l 1
 560 0 l 1
 410 0 l 1
 410 250 l 1
 240 250 l 2
 130.431640625 250 40 340.431640625 40 450 c 0
 40 455.870117188 40.275390625 461.680664062 40.783203125 467.4296875 c 2
 65.50390625 750 l 1
EndSplineSet
EndChar

StartChar: five
Encoding: 53 53 12
Width: 630
Flags: HW
LayerCount: 2
Fore
SplineSet
70.119140625 750 m 1
 540.09765625 750 l 1
 540.09765625 610 l 1
 206.046875 610 l 1
 200 516.896484375 l 1
 213.287109375 518.9375 226.880859375 520 240.705078125 520 c 2
 320.158203125 520 l 2
 468.359375 520 590.09765625 398.208984375 590.09765625 250 c 2
 590.09765625 249.927734375 l 2
 590.09765625 101.74609375 468.326171875 -20 320.140625 -20 c 2
 240.705078125 -20 l 2
 166.590820312 -20 99.0908203125 10.4423828125 50.119140625 59.4140625 c 1
 153.19140625 162.486328125 l 1
 174.942382812 136.877929688 205.899414062 120 240.705078125 120 c 2
 320.166015625 120 l 2
 387.263671875 120 440.09765625 182.798828125 440.09765625 249.90234375 c 2
 440.09765625 250 l 2
 440.09765625 317.145507812 387.288085938 380 320.150390625 380 c 2
 240.705078125 380 l 2
 226.36328125 380 212.677734375 377.127929688 200.017578125 371.966796875 c 1
 50 371.966796875 l 1
 70.119140625 750 l 1
EndSplineSet
EndChar

StartChar: six
Encoding: 54 54 13
Width: 620
Flags: HW
LayerCount: 2
Fore
SplineSet
394.509765625 770.701171875 m 1
 506.689453125 678.654296875 l 1
 358.2578125 497.677734375 l 1
 358.45703125 497.633789062 358.655273438 497.58984375 358.853515625 497.545898438 c 2
 358.967773438 497.520507812 l 2
 479.720703125 470.611328125 580.033203125 378.860351562 580 250 c 2
 580 249.842773438 l 2
 579.958007812 100.8515625 459.150390625 -19.95703125 310.159179688 -20 c 2
 310 -20 l 2
 160.9375 -20.04296875 40.0439453125 100.794921875 40 249.837890625 c 2
 40 250 l 2
 39.9794921875 319.23828125 64.0732421875 380.37890625 106.921875 428.16796875 c 2
 394.509765625 770.701171875 l 1
310 380 m 1
 310 380 l 1
 243.725585938 380.033203125 189.94921875 316.274414062 190 250 c 2
 190 249.8125 l 2
 190.05078125 183.60546875 243.788085938 119.979492188 310 120 c 2
 310.063476562 120 l 2
 376.249023438 120.020507812 429.952148438 183.6328125 430 249.822265625 c 2
 430 250 l 2
 430.047851562 316.239257812 376.331054688 379.966796875 310.104492188 380 c 2
 310 380 l 1
EndSplineSet
EndChar

StartChar: nine
Encoding: 57 57 14
Width: 620
Flags: HW
LayerCount: 2
Fore
SplineSet
225.490234375 -20.701171875 m 1
 113.310546875 71.345703125 l 1
 261.7421875 252.322265625 l 1
 261.54296875 252.366210938 261.344726562 252.41015625 261.146484375 252.454101562 c 2
 261.032226562 252.479492188 l 2
 140.279296875 279.388671875 39.966796875 371.139648438 40 500 c 2
 40 500.157226562 l 2
 40.04296875 649.1484375 160.849609375 769.95703125 309.840820312 770 c 2
 310 770 l 2
 459.0625 770.04296875 579.956054688 649.205078125 580 500.162109375 c 2
 580 500 l 2
 580.020507812 430.76171875 555.926757812 369.62109375 513.078125 321.83203125 c 2
 225.490234375 -20.701171875 l 1
310 370 m 1
 310 370 l 1
 376.274414062 369.966796875 430.05078125 433.725585938 430 500 c 2
 430 500.1875 l 2
 429.94921875 566.39453125 376.211914062 630.020507812 310 630 c 2
 309.936523438 630 l 2
 243.750976562 629.979492188 190.047851562 566.3671875 190 500.177734375 c 2
 190 500 l 2
 189.952148438 433.760742188 243.668945312 370.033203125 309.895507812 370 c 2
 310 370 l 1
EndSplineSet
EndChar

StartChar: seven
Encoding: 55 55 15
Width: 580
Flags: HW
LayerCount: 2
Fore
SplineSet
30 750 m 1
 550 750 l 1
 207.32421875 -19.6640625 l 1
 70.291015625 41.345703125 l 1
 323.47265625 610 l 1
 30 610 l 1
 30 750 l 1
EndSplineSet
EndChar

StartChar: eight
Encoding: 56 56 16
Width: 630
Flags: HW
LayerCount: 2
Fore
SplineSet
277.5 770 m 6
 352.5 770 l 6
 480.90625 770 585.038085938 665.90625 585 537.5 c 6
 585 537.399414062 l 6
 584.981445312 474.192382812 549.711914062 416.89453125 508.759765625 375 c 5
 549.734375 333.083984375 585.017578125 275.747070312 585 212.5 c 6
 585 212.372070312 l 6
 584.965820312 84.0244140625 480.86328125 -20 352.5 -20 c 6
 277.5 -20 l 6
 149.140625 -20 45.0380859375 84.0185546875 45 212.360351562 c 6
 45 212.5 l 6
 44.9814453125 275.747070312 80.2666015625 333.083984375 121.240234375 375 c 5
 80.3125 416.869140625 45.0400390625 474.123046875 45 537.28515625 c 6
 45 537.5 l 6
 44.9189453125 665.90625 149.09375 770 277.5 770 c 6
277.5 630 m 6
 231.936523438 630 194.963867188 583.063476562 195 537.5 c 6
 195 537.365234375 l 6
 195.036132812 491.84375 231.981445312 445 277.5 445 c 6
 352.5 445 l 6
 398 445 434.948242188 491.8046875 435 537.30859375 c 6
 435 537.5 l 6
 435.051757812 583.063476562 398.063476562 630 352.5 630 c 6
 277.5 630 l 6
277.5 305 m 6
 231.936523438 305 194.966796875 258.063476562 195 212.5 c 6
 195 212.375976562 l 6
 195.033203125 166.8515625 231.977539062 120 277.5 120 c 6
 352.5 120 l 6
 398.016601562 120 434.961914062 166.83984375 435 212.358398438 c 6
 435 212.5 l 6
 435.038085938 258.063476562 398.063476562 305 352.5 305 c 6
 277.5 305 l 6
EndSplineSet
EndChar

StartChar: R
Encoding: 82 82 17
Width: 610
Flags: HW
LayerCount: 2
Fore
SplineSet
50 750 m 1
 348 750 l 2
 470.883789062 750 570.521484375 650.383789062 570.5 527.5 c 2
 570.5 527.420898438 l 2
 570.481445312 419.602539062 493.733398438 329.719726562 391.90234375 309.33984375 c 1
 391.984375 309.198242188 l 1
 570.5 0 l 1
 403.068359375 0 l 1
 226.9765625 305 l 1
 200 305 l 1
 200 0 l 1
 50 0 l 1
 50 750 l 1
200 610 m 1
 200 445 l 1
 348 445 l 2
 388.01953125 445 420.482421875 487.4140625 420.5 527.436523438 c 2
 420.5 527.5 l 2
 420.517578125 567.541015625 388.041015625 610 348 610 c 2
 200 610 l 1
EndSplineSet
EndChar

StartChar: o
Encoding: 111 111 18
Width: 620
Flags: HW
LayerCount: 2
Fore
SplineSet
310 520 m 2
 310.08203125 520 l 2
 459.162109375 519.977539062 580.033203125 399.08984375 580 250 c 2
 580 249.876953125 l 2
 579.966796875 100.866210938 459.158203125 -19.958984375 310.150390625 -20 c 2
 310 -20 l 2
 160.919921875 -20.041015625 40.029296875 100.825195312 40 249.891601562 c 2
 40 250 l 2
 39.970703125 399.1171875 160.8828125 520.022460938 310 520 c 2
310 380 m 2
 243.7265625 380.041992188 189.96484375 316.274414062 190 250 c 2
 190 249.87109375 l 2
 190.03515625 183.643554688 243.76953125 119.974609375 310 120 c 2
 310.078125 120 l 2
 376.275390625 120.025390625 429.966796875 183.673828125 430 249.877929688 c 2
 430 250 l 2
 430.033203125 316.23046875 376.345703125 379.958007812 310.1328125 380 c 2
 310 380 l 2
EndSplineSet
EndChar

StartChar: l
Encoding: 108 108 19
Width: 250
Flags: HW
LayerCount: 2
Fore
SplineSet
50 750 m 5
 200 750 l 5
 200 140.087890625 l 5
 200 139.973632812 l 5
 200 0 l 5
 50 0 l 5
 50 140 l 5
 50 140.094726562 l 5
 50 609.779296875 l 5
 50 609.994140625 l 5
 50 750 l 5
EndSplineSet
EndChar

StartChar: a
Encoding: 97 97 20
Width: 630
Flags: HW
LayerCount: 2
Fore
SplineSet
310 519.9375 m 6
 310.08203125 519.9375 l 6
 371.333984375 519.9375 412.641601562 500 430 481.86328125 c 5
 430 500 l 5
 580 500 l 5
 580 0 l 5
 430 0 l 5
 430 18.005859375 l 5
 409.684570312 0 368.70703125 -20.0625 310.150390625 -20.0625 c 6
 310 -20.0625 l 6
 160.918945312 -20.103515625 40.029296875 100.762695312 40 249.830078125 c 6
 40 249.9375 l 6
 39.970703125 399.0546875 160.8828125 519.959960938 310 519.9375 c 6
310 379.9375 m 5
 310 379.9375 l 5
 243.725585938 379.9375 189.96484375 316.211914062 190 249.9375 c 6
 190 249.810546875 l 6
 190.03515625 183.58203125 243.768554688 119.912109375 310 119.9375 c 6
 310.078125 119.9375 l 6
 376.275390625 119.962890625 429.966796875 183.612304688 430 249.81640625 c 6
 430 249.9375 l 6
 430.033203125 316.16796875 376.345703125 379.9375 310.1328125 379.9375 c 6
 310 379.9375 l 5
EndSplineSet
EndChar

StartChar: n
Encoding: 110 110 21
Width: 619
Flags: HW
LayerCount: 2
Fore
SplineSet
309.805273437 519.946875 m 6
 309.888769531 519.946875 l 6
 453.389501953 519.962304688 569.74584961 403.620849609 569.75 260.125 c 6
 569.75 0 l 5
 419.75 0 l 5
 419.75 260.125 l 6
 419.750830078 320.775976562 370.558740235 379.929296875 309.906933594 379.946875 c 6
 309.762109375 379.946875 l 6
 249.149316407 379.946875 200.000830078 320.751074218 200 260.125 c 6
 200 0.00322265625 l 5
 50 0 l 5
 50 500 l 5
 194.678222656 500 l 5
 194.693164062 483.083789062 l 5
 211.46328125 500 251.326123047 519.946875 309.805273437 519.946875 c 6
EndSplineSet
EndChar

StartChar: r
Encoding: 114 114 22
Width: 405
Flags: HW
LayerCount: 2
Fore
SplineSet
50 500 m 1
 200 500 l 1
 200 481.86328125 l 1
 217.358398438 500 258.666015625 519.9375 319.91796875 519.9375 c 2
 320 519.9375 l 2
 338.874023438 519.940429688 357.293945312 517.998046875 375.076171875 514.314453125 c 1
 338.615234375 378.2421875 l 1
 332.547851562 379.352539062 326.33203125 379.9375 320 379.9375 c 2
 319.8671875 379.9375 l 2
 253.674804688 379.9375 200.000976562 316.208007812 200 250 c 2
 200 0 l 1
 50 0 l 1
 50 500 l 1
EndSplineSet
EndChar

StartChar: d
Encoding: 100 100 23
Width: 630
Flags: HW
LayerCount: 2
Fore
SplineSet
310 519.9375 m 2
 310.08203125 519.9375 l 2
 371.333984375 519.9375 412.641601562 500 430 481.86328125 c 1
 430 750 l 1
 580 750 l 1
 580 0 l 1
 430 0 l 1
 430 18.005859375 l 1
 409.684570312 0 368.70703125 -20.0625 310.150390625 -20.0625 c 2
 310 -20.0625 l 2
 160.918945312 -20.103515625 40.029296875 100.762695312 40 249.830078125 c 2
 40 249.9375 l 2
 39.970703125 399.0546875 160.8828125 519.959960938 310 519.9375 c 2
310 379.9375 m 1
 310 379.9375 l 1
 243.725585938 379.9375 189.96484375 316.211914062 190 249.9375 c 2
 190 249.810546875 l 2
 190.03515625 183.58203125 243.768554688 119.912109375 310 119.9375 c 2
 310.078125 119.9375 l 2
 376.275390625 119.962890625 429.966796875 183.612304688 430 249.81640625 c 2
 430 249.9375 l 2
 430.033203125 316.16796875 376.345703125 379.9375 310.1328125 379.9375 c 2
 310 379.9375 l 1
EndSplineSet
EndChar

StartChar: B
Encoding: 66 66 24
Width: 615
Flags: HW
LayerCount: 2
Fore
SplineSet
50 750 m 5
 348 750 l 6
 470.883789062 750 570.521484375 650.383789062 570.5 527.5 c 6
 570.5 527.419921875 l 6
 570.489257812 468.428710938 537.510742188 414.806640625 500.01953125 375 c 5
 537.510742188 335.193359375 570.489257812 281.571289062 570.5 222.580078125 c 6
 570.5 222.5 l 6
 570.521484375 99.6162109375 470.883789062 0 348 0 c 6
 50 0 l 5
 50 750 l 5
200 610 m 5
 200 445 l 5
 348 445 l 6
 388.01953125 445 420.482421875 487.4140625 420.5 527.435546875 c 6
 420.5 527.5 l 6
 420.517578125 567.541015625 388.041015625 610 348 610 c 6
 200 610 l 5
200 305 m 5
 200 140 l 5
 348 140 l 6
 388.041015625 140 420.517578125 182.458984375 420.5 222.5 c 6
 420.5 222.564453125 l 6
 420.482421875 262.5859375 388.01953125 305 348 305 c 6
 200 305 l 5
EndSplineSet
EndChar

StartChar: b
Encoding: 98 98 25
Width: 630
Flags: HW
LayerCount: 2
Fore
SplineSet
320 519.9375 m 6
 469.1171875 519.959960938 590.029296875 399.0546875 590 249.9375 c 6
 590 249.830078125 l 6
 589.970703125 100.762695312 469.081054688 -20.103515625 320 -20.0625 c 6
 319.849609375 -20.0625 l 6
 261.29296875 -20.0625 220.315429688 0 200 18.005859375 c 5
 200 0 l 5
 50 0 l 5
 50 750 l 5
 200 750 l 5
 200 481.86328125 l 5
 217.358398438 500 258.666015625 519.9375 319.91796875 519.9375 c 6
 320 519.9375 l 6
320 379.9375 m 5
 319.8671875 379.9375 l 6
 253.654296875 379.9375 199.966796875 316.16796875 200 249.9375 c 6
 200 249.81640625 l 6
 200.033203125 183.612304688 253.724609375 119.962890625 319.921875 119.9375 c 6
 320 119.9375 l 6
 386.231445312 119.912109375 439.96484375 183.58203125 440 249.810546875 c 6
 440 249.9375 l 6
 440.03515625 316.211914062 386.274414062 379.9375 320 379.9375 c 5
 320 379.9375 l 5
EndSplineSet
EndChar

StartChar: c
Encoding: 99 99 26
Width: 530
Flags: HW
LayerCount: 2
Fore
SplineSet
310 520 m 6
 310.08203125 520 l 6
 384.627929688 519.989257812 452.12109375 489.756835938 500.970703125 440.888671875 c 5
 397.232421875 337.150390625 l 5
 375.380859375 362.85546875 344.440429688 379.977539062 310.1328125 380 c 6
 310 380 l 6
 243.725585938 380.041992188 189.96484375 316.274414062 190 250 c 6
 190 249.87109375 l 6
 190.03515625 183.642578125 243.768554688 119.974609375 310 120 c 6
 310.078125 120 l 6
 344.405273438 120.012695312 375.365234375 137.138671875 397.228515625 162.853515625 c 5
 500.974609375 59.107421875 l 5
 452.139648438 10.25 384.670898438 -19.9794921875 310.150390625 -20 c 6
 310 -20 l 6
 160.918945312 -20.041015625 40.029296875 100.825195312 40 249.892578125 c 6
 40 250 l 6
 39.970703125 399.1171875 160.8828125 520.022460938 310 520 c 6
EndSplineSet
EndChar

StartChar: f
Encoding: 102 102 27
Width: 360
Flags: HW
LayerCount: 2
Fore
SplineSet
230 770 m 2
 330 770 l 1
 330 630 l 1
 230 630 l 1
 230 626.666992188 230 623.333007812 230 620 c 2
 230 500 l 1
 330 500 l 1
 330 360 l 1
 230 360 l 1
 230 0 l 1
 80 0 l 1
 80 360 l 1
 30 360 l 1
 30 500 l 1
 80 500 l 1
 80 620 l 2
 80 702.842773438 147.157226562 770 230 770 c 2
EndSplineSet
EndChar

StartChar: g
Encoding: 103 103 28
Width: 620
Flags: HW
LayerCount: 2
Fore
SplineSet
300 520 m 2
 300.150390625 520 l 2
 358.70703125 520 399.684570312 499.9375 420 481.931640625 c 1
 420 499.9375 l 1
 570 499.9375 l 1
 570 -50.0625 l 2
 570 -132.905273438 502.842773438 -200.0625 420 -200.0625 c 2
 205 -200.0625 l 2
 122.157226562 -200.0625 55 -132.905273438 55 -50.0625 c 1
 205 -50.0625 l 1
 205 -53.3955078125 205 -56.7294921875 205 -60.0625 c 1
 420 -60.0625 l 1
 420 -56.7294921875 420 -53.3955078125 420 -50.0625 c 2
 420 18.07421875 l 1
 402.641601562 -0.0625 361.333984375 -20 300.08203125 -20 c 2
 300 -20 l 2
 150.8828125 -20.0224609375 29.970703125 100.8828125 30 250 c 2
 30 250.107421875 l 2
 30.029296875 399.174804688 150.918945312 520.041015625 300 520 c 2
300 380 m 2
 233.768554688 380.025390625 180.03515625 316.35546875 180 250.126953125 c 2
 180 250 l 2
 179.96484375 183.725585938 233.725585938 120 300 120 c 2
 300.1328125 120 l 2
 366.345703125 120 420.033203125 183.76953125 420 250 c 2
 420 250.12109375 l 2
 419.966796875 316.325195312 366.275390625 379.974609375 300.078125 380 c 2
 300 380 l 2
EndSplineSet
EndChar

StartChar: h
Encoding: 104 104 29
Width: 619
Flags: HW
LayerCount: 2
Fore
SplineSet
309.805273437 519.946875 m 6
 309.888769531 519.946875 l 6
 453.389501953 519.962304688 569.74584961 403.620849609 569.75 260.125 c 6
 569.75 0 l 5
 419.75 0 l 5
 419.75 260.125 l 6
 419.750830078 320.775976562 370.558740235 379.929296875 309.906933594 379.946875 c 6
 309.762109375 379.946875 l 6
 249.149316407 379.946875 200.000830078 320.751074218 200 260.125 c 6
 200 0.00322265625 l 5
 50 0 l 5
 50 750 l 5
 200.003222656 750 l 5
 200.018164063 485.183789063 l 5
 215.640429688 501.580859375 254.090136719 519.946875 309.805273437 519.946875 c 6
EndSplineSet
EndChar

StartChar: i
Encoding: 105 105 30
Width: 300
Flags: HW
LayerCount: 2
Fore
SplineSet
75 500 m 1
 225 500 l 1
 225 140.047851562 l 1
 225 139.995117188 l 1
 225 0 l 1
 75 0 l 1
 75 140 l 1
 75 140.1015625 l 1
 75 358.420898438 l 1
 75 359.9921875 l 1
 75 500 l 1
250 670 m 0
 250 725.19140625 205.19140625 770 150 770 c 0
 94.80859375 770 50 725.19140625 50 670 c 0
 50 614.80859375 94.80859375 570 150 570 c 0
 205.19140625 570 250 614.80859375 250 670 c 0
EndSplineSet
EndChar

StartChar: j
Encoding: 106 106 31
Width: 350
Flags: HW
LayerCount: 2
Fore
SplineSet
125 500 m 1
 275 500 l 1
 275 -50 l 2
 275 -132.842773438 207.842773438 -200 125 -200 c 2
 50 -200 l 1
 50 -60 l 1
 124.609375 -60.0810546875 l 2
 124.924804688 -56.9189453125 125 -53.3330078125 125 -50 c 2
 125 358.421875 l 1
 125 359.9921875 l 1
 125 500 l 1
300 670 m 0
 300 725.19140625 255.19140625 770 200 770 c 0
 144.80859375 770 100 725.19140625 100 670 c 0
 100 614.80859375 144.80859375 570 200 570 c 0
 255.19140625 570 300 614.80859375 300 670 c 0
EndSplineSet
EndChar

StartChar: k
Encoding: 107 107 32
Width: 580
Flags: HW
LayerCount: 2
Fore
SplineSet
50 750 m 1
 200 750 l 1
 200 355.060546875 l 1
 344.9375 500 l 1
 550 500 l 1
 321.87109375 271.87109375 l 1
 550 0 l 1
 360.71484375 0 l 1
 218.94921875 168.94921875 l 1
 200 150 l 1
 200 0 l 1
 50 0 l 1
 50 750 l 1
EndSplineSet
EndChar

StartChar: m
Encoding: 109 109 33
Width: 989
Flags: HW
LayerCount: 2
Fore
SplineSet
309.805273437 519.946875 m 2
 309.888769531 519.946875 l 2
 382.287597656 519.955224609 445.5 500 494.75 432.416015625 c 1
 541.738867187 480.251708984 607.190820312 519.945263672 679.576367187 519.946875 c 2
 679.708496094 519.946875 l 2
 823.193457032 519.943212891 939.5265625 403.609228516 939.534863281 260.125 c 2
 939.534863281 0 l 1
 789.534863281 0 l 1
 789.534863281 260.125 l 2
 789.53569336 320.764355469 740.362695313 379.906884765 679.726660156 379.946875 c 2
 679.558203125 379.946875 l 2
 618.922167969 379.906884765 569.749169922 320.764355469 569.75 260.125 c 2
 569.75 0 l 1
 419.75 0 l 1
 419.75 260.125 l 2
 419.750830078 320.775976562 370.558740235 379.929296875 309.906933594 379.946875 c 2
 309.762109375 379.946875 l 2
 249.149316407 379.946875 200.000830078 320.751074218 200 260.125 c 2
 200 0.00322265625 l 1
 50 0 l 1
 50 500 l 1
 194.678222656 500 l 1
 194.693164062 483.083789062 l 1
 211.46328125 500 251.326123047 519.946875 309.805273437 519.946875 c 2
EndSplineSet
EndChar

StartChar: p
Encoding: 112 112 34
Width: 630
Flags: HW
LayerCount: 2
Fore
SplineSet
320 -20 m 2
 319.91796875 -20 l 2
 258.666015625 -20 217.358398438 -0.0625 200 18.07421875 c 1
 200 -200.0625 l 1
 50 -200.0625 l 1
 50 499.9375 l 1
 200 499.9375 l 1
 200 481.931640625 l 1
 220.315429688 499.9375 261.29296875 520 319.849609375 520 c 2
 320 520 l 2
 469.081054688 520.041015625 589.970703125 399.174804688 590 250.107421875 c 2
 590 250 l 2
 590.029296875 100.8828125 469.1171875 -20.0224609375 320 -20 c 2
320 120 m 1
 320 120 l 1
 386.274414062 120 440.03515625 183.725585938 440 250 c 2
 440 250.126953125 l 2
 439.96484375 316.35546875 386.231445312 380.025390625 320 380 c 2
 319.921875 380 l 2
 253.724609375 379.974609375 200.033203125 316.325195312 200 250.12109375 c 2
 200 250 l 2
 199.966796875 183.76953125 253.654296875 120 319.8671875 120 c 2
 320 120 l 1
EndSplineSet
EndChar

StartChar: q
Encoding: 113 113 35
Width: 630
Flags: HW
LayerCount: 2
Fore
SplineSet
310 -20 m 2
 160.8828125 -20.0224609375 39.970703125 100.8828125 40 250 c 2
 40 250.107421875 l 2
 40.029296875 399.174804688 160.918945312 520.041015625 310 520 c 2
 310.150390625 520 l 2
 368.70703125 520 409.684570312 499.9375 430 481.931640625 c 1
 430 499.9375 l 1
 580 499.9375 l 1
 580 -200.0625 l 1
 430 -200.0625 l 1
 430 18.07421875 l 1
 412.641601562 -0.0625 371.333984375 -20 310.08203125 -20 c 2
 310 -20 l 2
310 120 m 1
 310.1328125 120 l 2
 376.346679688 120 430.033203125 183.76953125 430 250 c 2
 430 250.12109375 l 2
 429.966796875 316.325195312 376.275390625 379.974609375 310.078125 380 c 2
 310 380 l 2
 243.768554688 380.025390625 190.03515625 316.35546875 190 250.126953125 c 2
 190 250 l 2
 189.965820312 183.725585938 243.725585938 120 310 120 c 1
 310 120 l 1
EndSplineSet
EndChar

StartChar: s
Encoding: 115 115 36
Width: 450
Flags: HW
LayerCount: 2
Fore
SplineSet
200 520 m 6
 280 520 l 6
 326.5 520 369 500.75 399.875 469.875 c 5
 296.169921875 366.169921875 l 5
 292.680664062 373.743164062 287.017578125 380 280 380 c 6
 200 380 l 6
 188.06640625 380 180 361.93359375 180 350 c 6
 180 349.766601562 l 6
 180 337.831054688 188.143554688 320 200 320 c 6
 250 320 l 6
 343 320 420 243 420 150 c 6
 420 149.875976562 l 6
 420 56.931640625 342.958984375 -20 250 -20 c 6
 170 -20 l 6
 123.5 -20 81 -0.75 50.125 30.125 c 5
 153.830078125 133.830078125 l 5
 157.319335938 126.256835938 162.982421875 120 170 120 c 6
 250 120 l 6
 261.874023438 120 270 137.883789062 270 149.819335938 c 6
 270 150 l 6
 270 161.93359375 261.93359375 180 250 180 c 6
 200 180 l 6
 107.086914062 180 30 256.85546875 30 349.73828125 c 6
 30 350 l 6
 30 443 107 520 200 520 c 6
EndSplineSet
EndChar

StartChar: t
Encoding: 116 116 37
Width: 410
Flags: HW
LayerCount: 2
Fore
SplineSet
130 750 m 1
 280 750 l 1
 280 500 l 1
 379 500 l 1
 379 360 l 1
 280 360 l 1
 280 0 l 1
 130 0 l 1
 130 360 l 1
 31 360 l 1
 31 500 l 1
 130 500 l 1
 130 750 l 1
EndSplineSet
EndChar

StartChar: u
Encoding: 117 117 38
Width: 619
Flags: HW
LayerCount: 2
Fore
SplineSet
50 500 m 5
 200 500 l 5
 200 239.875 l 6
 200 179.192480469 249.192480469 119.921972657 309.875 120 c 6
 310.114453125 120 l 6
 370.686767578 120.078027343 419.75 179.272949219 419.75 239.875 c 6
 419.75 500 l 5
 569.75 500 l 5
 569.75 239.875 l 6
 569.75 96.4715332027 453.597070313 -19.9011230469 310.239355469 -20 c 6
 309.875 -20 l 6
 166.349707031 -20.0988769531 50 96.3497070313 50 239.875 c 6
 50 500 l 5
EndSplineSet
EndChar

StartChar: v
Encoding: 118 118 39
Width: 703
Flags: HW
LayerCount: 2
Fore
SplineSet
30 500 m 5
 193.254882812 500 l 5
 352.252441406 192.719042969 l 5
 511.25 500 l 5
 674.504882812 500 l 5
 416.668847656 0 l 5
 287.836035156 0 l 5
 30 500 l 5
EndSplineSet
EndChar

StartChar: w
Encoding: 119 119 40
Width: 1155
Flags: HW
LayerCount: 2
Fore
SplineSet
30 500 m 5
 193.254882812 500 l 5
 352.252441406 192.719042969 l 5
 511.25 500 l 5
 644.064355469 500 l 5
 803.061914063 192.719042969 l 5
 962.059472656 500 l 5
 1125.31435547 500 l 5
 867.478320313 0 l 5
 738.645507812 0 l 5
 577.658007813 310.30078125 l 5
 416.668847656 0 l 5
 287.836035156 0 l 5
 30 500 l 5
EndSplineSet
EndChar

StartChar: x
Encoding: 120 120 41
Width: 616
Flags: HW
LayerCount: 2
Fore
SplineSet
30 500 m 5
 211.25 500 l 5
 308.125 370.833984375 l 5
 405 500 l 5
 586.25 500 l 5
 398.75 250 l 5
 586.25 0 l 5
 405 0 l 5
 308.125 129.166015625 l 5
 211.25 0 l 5
 30 0 l 5
 217.5 250 l 5
 30 500 l 5
EndSplineSet
EndChar

StartChar: y
Encoding: 121 121 42
Width: 720
Flags: HW
LayerCount: 2
Fore
SplineSet
30 499.995019531 m 5
 191.028808594 499.995019531 l 5
 345.257128906 176.644140625 l 5
 524.952050781 499.995019531 l 5
 690.775292969 499.995019531 l 5
 302.943261719 -200.004980469 l 5
 137.118066406 -200.004980469 l 5
 258.991894531 20.2731445313 l 5
 30 499.995019531 l 5
EndSplineSet
EndChar

StartChar: z
Encoding: 122 122 43
Width: 593
Flags: HW
LayerCount: 2
Fore
SplineSet
50.4921875 500 m 1
 558.982421875 500 l 1
 307.982421875 142 l 1
 543.4921875 142 l 1
 543.4921875 0 l 1
 35 0 l 1
 286 358 l 1
 50.4921875 358 l 1
 50.4921875 500 l 1
EndSplineSet
EndChar

StartChar: O
Encoding: 79 79 44
Width: 850
Flags: HW
LayerCount: 2
Fore
SplineSet
425 770 m 2
 425.258789062 770 l 2
 642.405273438 769.9296875 820.046875 592.177734375 820 375 c 2
 820 374.829101562 l 2
 819.953125 157.702148438 642.305664062 -19.951171875 425.1796875 -20 c 2
 425 -20 l 2
 207.838867188 -20.048828125 30.083984375 157.567382812 30 374.69140625 c 2
 30 375 l 2
 29.916015625 592.263671875 207.736328125 770.0703125 425 770 c 2
425 630 m 2
 288.801757812 630.088867188 179.94140625 511.198242188 180 375 c 2
 180 374.780273438 l 2
 180.05859375 238.673828125 288.875 119.930664062 425 120 c 2
 425.239257812 120 l 2
 561.250976562 120.069335938 669.940429688 238.750976562 670 374.775390625 c 2
 670 375 l 2
 670.059570312 511.095703125 561.361328125 629.911132812 425.305664062 630 c 2
 425 630 l 2
EndSplineSet
EndChar

StartChar: C
Encoding: 67 67 45
Width: 734
Flags: HW
LayerCount: 2
Fore
SplineSet
425 770 m 6
 425.259765625 770 l 6
 533.8359375 769.96484375 632.532226562 725.506835938 704.080078125 653.91015625 c 5
 601.0859375 550.916015625 l 5
 556.741210938 599.124023438 494.576171875 629.955078125 425.306640625 630 c 6
 425 630 l 6
 288.801757812 630.088867188 179.94140625 511.198242188 180 375 c 6
 180 374.78125 l 6
 180.05859375 238.674804688 288.875 119.930664062 425 120 c 6
 425.240234375 120.001953125 l 6
 494.44921875 120.037109375 556.5703125 150.795898438 600.91796875 198.912109375 c 5
 703.90625 95.923828125 l 5
 632.354492188 24.4150390625 533.698242188 -19.9755859375 425.1796875 -20 c 6
 425 -20 l 6
 207.838867188 -20.048828125 30.083984375 157.567382812 30 374.69140625 c 6
 30 375 l 6
 29.916015625 592.263671875 207.736328125 770.0703125 425 770 c 6
EndSplineSet
EndChar

StartChar: D
Encoding: 68 68 46
Width: 705
Flags: HW
LayerCount: 2
Fore
SplineSet
50 750 m 5
 300 750 l 6
 506.21875 750 675.069335938 581.21875 675 375 c 6
 675 374.745117188 l 6
 674.930664062 168.642578125 506.133789062 0 300 0 c 6
 50 0 l 5
 50 750 l 5
200 610 m 5
 200 140 l 5
 300 140 l 6
 425.09375 140 524.953125 249.744140625 525 374.823242188 c 6
 525 375 l 6
 525.046875 500.15234375 425.15234375 610 300 610 c 6
 200 610 l 5
EndSplineSet
EndChar

StartChar: E
Encoding: 69 69 47
Width: 590
Flags: HW
LayerCount: 2
Fore
SplineSet
50 750 m 5
 550 750 l 5
 550 610 l 5
 200 610 l 5
 200 445 l 5
 550 445 l 5
 550 305 l 5
 200 305 l 5
 200 140 l 5
 550 140 l 5
 550 0 l 5
 50 0 l 5
 50 750 l 5
EndSplineSet
EndChar

StartChar: F
Encoding: 70 70 48
Width: 590
Flags: HW
LayerCount: 2
Fore
SplineSet
50 750 m 5
 550 750 l 5
 550 610 l 5
 200 610 l 5
 200 445 l 5
 550 445 l 5
 550 305 l 5
 200 305 l 5
 200 0 l 5
 50 0 l 5
 50 750 l 5
EndSplineSet
EndChar

StartChar: A
Encoding: 65 65 49
Width: 711
Flags: HW
LayerCount: 2
Fore
SplineSet
288.015625 750 m 5
 423.22265625 750 l 5
 681.23828125 0 l 5
 530 0 l 5
 450.494140625 230.5 l 5
 260.744140625 230.5 l 5
 181.23828125 0 l 5
 30 0 l 5
 288.015625 750 l 5
355.619140625 506.400390625 m 5
 308.953125 370.5 l 5
 402.28515625 370.5 l 5
 355.619140625 506.400390625 l 5
EndSplineSet
EndChar

StartChar: G
Encoding: 71 71 50
Width: 850
Flags: HW
LayerCount: 2
Fore
SplineSet
425 770 m 2
 450 770 l 2
 558.631835938 770 657.3828125 725.56640625 728.974609375 653.974609375 c 1
 625.9765625 550.9765625 l 1
 581.580078125 599.189453125 519.346679688 630 450 630 c 2
 425 630 l 2
 288.801757812 630 179.971679688 511.198242188 180 375 c 2
 180 374.89453125 l 2
 180.028320312 238.740234375 288.836914062 119.96875 425 120 c 2
 425.106445312 120 l 2
 537.16015625 120.025390625 635.913412575 208.701626592 657.21875 284.909179688 c 2
 657.244140625 285 l 1
 425 285 l 1
 425 425 l 1
 820 425 l 1
 820 375 l 2
 820 157.798828125 642.368164062 -19.9482421875 425.190429688 -20 c 2
 425 -20 l 2
 207.7890625 -20.0517578125 30.0439453125 157.6484375 30 374.83984375 c 2
 30 375 l 2
 29.9560546875 592.263671875 207.736328125 770 425 770 c 2
EndSplineSet
EndChar

StartChar: H
Encoding: 72 72 51
Width: 675
Flags: HW
LayerCount: 2
Fore
SplineSet
50 750 m 1
 200 750 l 1
 200 445 l 1
 475 445 l 1
 475 750 l 1
 625 750 l 1
 625 0 l 1
 475 0 l 1
 475 305 l 1
 200 305 l 1
 200 0 l 1
 50 0 l 1
 50 750 l 1
EndSplineSet
EndChar

StartChar: I
Encoding: 73 73 52
Width: 250
Flags: HW
LayerCount: 2
Fore
SplineSet
50 750 m 5
 200 750 l 5
 200 609.985351562 l 5
 200 609.829101562 l 5
 200 140.1171875 l 5
 200 139.993164062 l 5
 200 0 l 5
 50 0 l 5
 50 139.985351562 l 5
 50 140.076171875 l 5
 50 609.853515625 l 5
 50 610 l 5
 50 750 l 5
EndSplineSet
EndChar

StartChar: L
Encoding: 76 76 53
Width: 580
Flags: HW
LayerCount: 2
Fore
SplineSet
50 750 m 5
 200 750 l 5
 200 140 l 5
 550 140 l 5
 550 0 l 5
 50 0 l 5
 50 750 l 5
EndSplineSet
EndChar

StartChar: T
Encoding: 84 84 54
Width: 610
Flags: HW
LayerCount: 2
Fore
SplineSet
30 750 m 5
 580 750 l 5
 580 610 l 5
 380 610 l 5
 380 0 l 5
 230 0 l 5
 230 610 l 5
 30 610 l 5
 30 750 l 5
EndSplineSet
EndChar

StartChar: Y
Encoding: 89 89 55
Width: 752
Flags: HW
LayerCount: 2
Fore
SplineSet
30 750 m 5
 207.12109375 750 l 5
 376.134765625 503.935546875 l 5
 545.1484375 750 l 5
 722.26953125 750 l 5
 451.134765625 355.255859375 l 5
 451.134765625 0 l 5
 301.134765625 0 l 5
 301.134765625 355.255859375 l 5
 30 750 l 5
EndSplineSet
EndChar

StartChar: P
Encoding: 80 80 56
Width: 610
Flags: HW
LayerCount: 2
Fore
SplineSet
50 750 m 5
 348 750 l 6
 470.883789062 750 570.521484375 650.383789062 570.5 527.5 c 6
 570.5 527.26953125 l 6
 570.458984375 404.4921875 470.806640625 305 348 305 c 6
 200 305 l 5
 200 0 l 5
 50 0 l 5
 50 750 l 5
200 610 m 5
 200 445 l 5
 348 445 l 6
 387.99609375 445 420.481445312 487.365234375 420.5 527.3671875 c 6
 420.5 527.5 l 6
 420.517578125 567.541015625 388.041015625 610 348 610 c 6
 200 610 l 5
EndSplineSet
EndChar

StartChar: Z
Encoding: 90 90 57
Width: 632
Flags: HW
LayerCount: 2
Fore
SplineSet
55 750 m 5
 602.736328125 750 l 5
 280.736328125 150 l 5
 576.3671875 150 l 5
 576.3671875 0 l 5
 30 0 l 5
 352 600 l 5
 55 600 l 5
 55 750 l 5
EndSplineSet
EndChar

StartChar: J
Encoding: 74 74 58
Width: 421
Flags: HW
LayerCount: 2
Fore
SplineSet
221.087890625 750 m 5
 371.087890625 750 l 5
 371.087890625 180 l 6
 371.087890625 70.4814453125 280.739257812 -19.958984375 171.237304688 -20 c 6
 171.087890625 -20 l 6
 116.303710938 -20.0205078125 66.3037109375 2.6083984375 30 38.912109375 c 5
 133.28515625 142.197265625 l 5
 142.309570312 129.223632812 155.669921875 119.979492188 171.087890625 120 c 6
 171.189453125 120 l 6
 199.641601562 120.037109375 221.087890625 151.53125 221.087890625 180 c 6
 221.087890625 750 l 5
EndSplineSet
EndChar

StartChar: K
Encoding: 75 75 59
Width: 642
Flags: HW
LayerCount: 2
Fore
SplineSet
50 750 m 5
 200 750 l 5
 200 457.6640625 l 5
 430.146484375 750 l 5
 612.5 750 l 5
 319.51953125 375 l 5
 612.501953125 0 l 5
 430.1484375 0 l 5
 230.341796875 259.1796875 l 5
 200 222.0234375 l 5
 200 0 l 5
 50 0 l 5
 50 750 l 5
EndSplineSet
EndChar

StartChar: V
Encoding: 86 86 60
Width: 715
Flags: HW
LayerCount: 2
Fore
SplineSet
30 750 m 1
 185.46875 750 l 1
 357.734375 249.7421875 l 1
 530 750 l 1
 685.46875 750 l 1
 427.228515625 0 l 1
 288.240234375 0 l 1
 30 750 l 1
EndSplineSet
EndChar

StartChar: W
Encoding: 87 87 61
Width: 1204
Flags: HW
LayerCount: 2
Fore
SplineSet
30 750 m 5
 185.46875 750 l 5
 357.734375 249.7421875 l 5
 530 750 l 5
 674.234375 750 l 5
 846.5 249.7421875 l 5
 1018.765625 750 l 5
 1174.234375 750 l 5
 915.994140625 0 l 5
 777.005859375 0 l 5
 602.1171875 507.923828125 l 5
 427.228515625 0 l 5
 288.240234375 0 l 5
 30 750 l 5
EndSplineSet
EndChar

StartChar: M
Encoding: 77 77 62
Width: 1000
Flags: H
LayerCount: 2
Fore
SplineSet
50 750 m 1
 209.6640625 750 l 1
 490 195.65234375 l 1
 770.3359375 750 l 1
 930 750 l 1
 930 0 l 1
 780 0 l 1
 780 445.1484375 l 1
 556.439453125 0 l 1
 423.560546875 0 l 1
 200 445.1484375 l 1
 200 0 l 1
 50 0 l 1
 50 750 l 1
EndSplineSet
EndChar

StartChar: N
Encoding: 78 78 63
Width: 750
Flags: HW
LayerCount: 2
Fore
SplineSet
50 750 m 5
 215.138671875 750 l 5
 550 247.70703125 l 5
 550 750 l 5
 700 750 l 5
 700 0 l 5
 534.861328125 0 l 5
 200 502.29296875 l 5
 200 0 l 5
 50 0 l 5
 50 750 l 5
EndSplineSet
EndChar

StartChar: U
Encoding: 85 85 64
Width: 720
Flags: HW
LayerCount: 2
Fore
SplineSet
50.0234375 750 m 1
 200.0234375 750 l 1
 200 290 l 2
 200 200.74609375 270.74609375 119.94140625 360 120 c 2
 360.1953125 120 l 2
 449.357421875 120.05859375 520 200.811523438 520 290 c 2
 520 750 l 1
 670 750 l 1
 670 290 l 2
 670 119.775390625 530.4765625 -19.921875 360.287109375 -20 c 2
 360 -20 l 2
 189.6796875 -20.078125 50 119.6796875 50 290 c 2
 50.0234375 750 l 1
EndSplineSet
EndChar

StartChar: S
Encoding: 83 83 65
Width: 550
Flags: HW
LayerCount: 2
Fore
SplineSet
262.5 770 m 2
 332.5 770 l 2
 396.258789062 770 454.3828125 743.75390625 496.568359375 701.568359375 c 1
 393.41796875 598.41796875 l 1
 378.473632812 617.252929688 356.930664062 630 332.5 630 c 2
 262.5 630 l 2
 216.047851562 630 180 583.952148438 180 537.5 c 2
 180 537.298828125 l 2
 180 490.915039062 216.115234375 445 262.5 445 c 2
 297.5 445 l 2
 425.017578125 445 530 340.017578125 530 212.5 c 2
 530 212.365234375 l 2
 530 84.908203125 424.97265625 -20 297.5 -20 c 2
 202.5 -20 l 2
 138.741210938 -20 80.6171875 6.24609375 38.431640625 48.431640625 c 1
 141.58203125 151.58203125 l 1
 156.526367188 132.747070312 178.069335938 120 202.5 120 c 2
 297.5 120 l 2
 343.896484375 120 380 165.9375 380 212.333007812 c 2
 380 212.5 l 2
 380 258.952148438 343.952148438 305 297.5 305 c 2
 262.5 305 l 2
 135.046875 305 30 409.875 30 537.305664062 c 2
 30 537.5 l 2
 30 665.017578125 134.982421875 770 262.5 770 c 2
EndSplineSet
EndChar

StartChar: dollar
Encoding: 36 36 66
Width: 550
Flags: HW
LayerCount: 2
Fore
SplineSet
225 800 m 1
 325 800 l 1
 325 765 l 1
 347.5 765 l 2
 411.258789062 765 464.3828125 739.75390625 506.568359375 697.568359375 c 1
 408.41796875 598.41796875 l 1
 393.473632812 617.252929688 371.930664062 630 347.5 630 c 2
 325 630 l 1
 325 441.916015625 l 1
 325.166992188 441.888671875 l 2
 435.056640625 423.701171875 520 327.205078125 520 212.5 c 2
 520 212.365234375 l 2
 520 97.7099609375 435.01171875 1.28515625 325.141601562 -16.890625 c 2
 325 -16.9140625 l 1
 325 -50 l 1
 225 -50 l 1
 225 -15 l 1
 202.5 -15 l 2
 138.741210938 -15 85.6171875 11.24609375 43.431640625 53.431640625 c 1
 141.58203125 151.58203125 l 1
 156.526367188 132.747070312 178.069335938 120 202.5 120 c 2
 225 120 l 1
 225 308.083984375 l 1
 224.850585938 308.108398438 l 2
 114.998046875 326.282226562 30 422.677734375 30 537.3046875 c 2
 30 537.5 l 2
 30 652.231445312 114.984375 748.7265625 224.908203125 766.900390625 c 2
 225 766.916015625 l 1
 225 800 l 1
225 619.287109375 m 1
 224.899414062 619.225585938 l 2
 197.965820312 602.918945312 180 570.301757812 180 537.5 c 2
 180 537.298828125 l 2
 180 504.573242188 197.962890625 472.057617188 224.857421875 455.787109375 c 2
 225 455.701171875 l 1
 225 619.287109375 l 1
325 294.287109375 m 1
 325 130.703125 l 1
 325.103515625 130.765625 l 2
 352.01953125 147.041992188 370 179.58203125 370 212.333984375 c 2
 370 212.5 l 2
 370 245.279296875 352.065429688 277.884765625 325.15625 294.192382812 c 2
 325 294.287109375 l 1
EndSplineSet
EndChar

StartChar: percent
Encoding: 37 37 67
Width: 910
Flags: HW
LayerCount: 2
Fore
SplineSet
645.833984375 769.90234375 m 1
 764.166015625 686.09765625 l 1
 264.166015625 -19.90234375 l 1
 145.833984375 63.90234375 l 1
 645.833984375 769.90234375 l 1
255 770 m 0
 350.76171875 770 430 690.76171875 430 595 c 0
 430 499.23828125 350.76171875 420 255 420 c 0
 159.23828125 420 80 499.23828125 80 595 c 0
 80 690.76171875 159.23828125 770 255 770 c 0
255 630 m 0
 240.3046875 630 230 609.6953125 230 595 c 0
 230 580.3046875 240.3046875 560 255 560 c 0
 269.6953125 560 280 580.3046875 280 595 c 0
 280 609.6953125 269.6953125 630 255 630 c 0
655 330 m 4
 750.76171875 330 830 250.76171875 830 155 c 4
 830 59.23828125 750.76171875 -20 655 -20 c 4
 559.23828125 -20 480 59.23828125 480 155 c 4
 480 250.76171875 559.23828125 330 655 330 c 4
655 190 m 4
 640.3046875 190 630 169.6953125 630 155 c 4
 630 140.3046875 640.3046875 120 655 120 c 4
 669.6953125 120 680 140.3046875 680 155 c 4
 680 169.6953125 669.6953125 190 655 190 c 4
EndSplineSet
EndChar

StartChar: ampersand
Encoding: 38 38 68
Width: 626
Flags: HW
LayerCount: 2
Fore
SplineSet
266 770 m 2
 266.096679688 770 l 2
 328.293945312 770 383.315429688 735.486328125 412.923828125 684.826171875 c 1
 288.291015625 612.560546875 l 1
 283.608398438 621.381835938 274.772460938 630 266.1015625 630 c 2
 266 630 l 2
 254.06640625 630 242 611.93359375 242 600 c 2
 242 599.8828125 l 2
 242 581.517578125 246.497070312 577.018554688 248.05078125 574.34375 c 2
 463.673828125 253.18359375 l 1
 502.99609375 293.50390625 l 1
 605.525390625 190.974609375 l 1
 543.953125 128.400390625 l 1
 591.669921875 57.111328125 l 1
 469.76171875 -22.05859375 l 1
 440.66015625 19.953125 l 1
 399.637695312 -5.3291015625 351.482421875 -20 300.140625 -20 c 2
 300 -20 l 2
 151.817382812 -20 30 101.696289062 30 249.86328125 c 2
 30 250 l 2
 30 341.568359375 76.4755859375 423.033203125 146.947265625 471.9375 c 1
 123.755859375 507.625 l 2
 106.263671875 534.288085938 96 566.015625 96 599.875 c 2
 96 600 l 2
 96 693 173 770 266 770 c 2
225.61328125 350.880859375 m 1
 197.698242188 326.251953125 180 288.857421875 180 250 c 2
 180 249.815429688 l 2
 180 182.721679688 232.899414062 120 300 120 c 2
 300.119140625 120 l 2
 323.189453125 120 344.565429688 127.465820312 362.685546875 139.9453125 c 1
 225.61328125 350.880859375 l 1
EndSplineSet
EndChar

StartChar: quotesingle
Encoding: 39 39 69
Width: 250
Flags: HW
LayerCount: 2
Fore
SplineSet
50 500 m 5
 50 750 l 5
 200 750 l 5
 200 500 l 5
 50 500 l 5
EndSplineSet
EndChar

StartChar: parenleft
Encoding: 40 40 70
Width: 336
Flags: HW
LayerCount: 2
Fore
SplineSet
185.263671875 800 m 1
 302.243164062 710.125976562 l 1
 292.080078125 696.55859375 282.5 682.561523438 273.522460938 668.190429688 c 0
 217.719726562 578.862304688 185.189453125 475.01953125 180.571289062 369.248046875 c 0
 174.946289062 240.405273438 210.827148438 110.806640625 281.846679688 3.8408203125 c 0
 289.604492188 -7.841796875 297.780273438 -19.2548828125 306.3671875 -30.3681640625 c 1
 191.051757812 -121.291015625 l 1
 181.618164062 -109.327148438 172.572265625 -97.10546875 163.921875 -84.64453125 c 0
 70.8876953125 49.3671875 23.5185546875 210.991210938 30.7138671875 375.791015625 c 0
 36.7919921875 514.997070312 81.458984375 648.552734375 158.084960938 762.252929688 c 0
 166.740234375 775.095703125 175.802734375 787.684570312 185.263671875 800 c 1
EndSplineSet
EndChar

StartChar: parenright
Encoding: 41 41 71
Width: 336
Flags: HW
LayerCount: 2
Fore
SplineSet
151.103515625 800 m 1
 34.1240234375 710.125976562 l 1
 44.287109375 696.55859375 53.8671875 682.561523438 62.8447265625 668.190429688 c 0
 118.647460938 578.862304688 151.177734375 475.01953125 155.795898438 369.248046875 c 0
 161.420898438 240.405273438 125.540039062 110.806640625 54.5205078125 3.8408203125 c 0
 46.7626953125 -7.841796875 38.5869140625 -19.2548828125 30 -30.3681640625 c 1
 145.315429688 -121.291015625 l 1
 154.749023438 -109.327148438 163.794921875 -97.10546875 172.4453125 -84.64453125 c 0
 265.479492188 49.3671875 312.848632812 210.991210938 305.653320312 375.791015625 c 0
 299.575195312 514.997070312 254.908203125 648.552734375 178.282226562 762.252929688 c 0
 169.626953125 775.095703125 160.564453125 787.684570312 151.103515625 800 c 1
EndSplineSet
EndChar

StartChar: asterisk
Encoding: 42 42 72
Width: 477
Flags: HW
LayerCount: 2
Fore
SplineSet
178.751953125 750 m 1
 298.751953125 750 l 1
 298.751953125 632.583984375 l 1
 410.421875 668.8671875 l 1
 447.50390625 554.740234375 l 1
 335.833984375 518.45703125 l 1
 404.849609375 423.462890625 l 1
 307.767578125 352.9296875 l 1
 238.751953125 447.921875 l 1
 169.736328125 352.9296875 l 1
 72.654296875 423.462890625 l 1
 141.669921875 518.45703125 l 1
 30 554.740234375 l 1
 67.08203125 668.8671875 l 1
 178.751953125 632.583984375 l 1
 178.751953125 750 l 1
EndSplineSet
EndChar

StartChar: plus
Encoding: 43 43 73
Width: 560
Flags: HW
LayerCount: 2
Fore
SplineSet
205 625 m 1
 355 625 l 1
 355 445 l 1
 530 445 l 1
 530 305 l 1
 355 305 l 1
 355 125 l 1
 205 125 l 1
 205 305 l 1
 30 305 l 1
 30 445 l 1
 205 445 l 1
 205 625 l 1
EndSplineSet
EndChar

StartChar: comma
Encoding: 44 44 74
Width: 276
Flags: HW
LayerCount: 2
Fore
SplineSet
46.603515625 80 m 0
 46.603515625 135.19140625 91.412109375 180 146.603515625 180 c 4
 201.794921875 180 246.603515625 135.19140625 246.603515625 80 c 0
 246.603515625 66.5927734375 243.916015625 53.7353515625 239.12109375 42.046875 c 2
 170.953125 -145.240234375 l 1
 30 -93.9375 l 1
 69.939453125 15.79296875 l 1
 55.3935546875 33.1611328125 46.603515625 55.595703125 46.603515625 80 c 0
EndSplineSet
EndChar

StartChar: period
Encoding: 46 46 75
Width: 260
Flags: HW
LayerCount: 2
Fore
SplineSet
230 80 m 0
 230 24.80859375 185.19140625 -20 130 -20 c 0
 74.80859375 -20 30 24.80859375 30 80 c 0
 30 135.19140625 74.80859375 180 130 180 c 0
 185.19140625 180 230 135.19140625 230 80 c 0
EndSplineSet
EndChar

StartChar: hyphen
Encoding: 45 45 76
Width: 510
Flags: HW
LayerCount: 2
Fore
SplineSet
30 445 m 1
 480 445 l 5
 480 305 l 5
 30 305 l 1
 30 445 l 1
EndSplineSet
EndChar

StartChar: slash
Encoding: 47 47 77
Width: 463
Flags: HW
LayerCount: 2
Fore
SplineSet
280 750 m 5
 433.8984375 750 l 5
 183.8984375 0 l 5
 30 0 l 5
 280 750 l 5
EndSplineSet
EndChar

StartChar: colon
Encoding: 58 58 78
Width: 260
Flags: HW
LayerCount: 2
Fore
SplineSet
230 80 m 4
 230 24.80859375 185.19140625 -20 130 -20 c 4
 74.80859375 -20 30 24.80859375 30 80 c 4
 30 135.19140625 74.80859375 180 130 180 c 4
 185.19140625 180 230 135.19140625 230 80 c 4
230 420 m 4
 230 364.80859375 185.19140625 320 130 320 c 4
 74.80859375 320 30 364.80859375 30 420 c 4
 30 475.19140625 74.80859375 520 130 520 c 4
 185.19140625 520 230 475.19140625 230 420 c 4
EndSplineSet
EndChar

StartChar: semicolon
Encoding: 59 59 79
Width: 276
Flags: HW
LayerCount: 2
Fore
SplineSet
246.603515625 420 m 0
 246.603515625 364.80859375 201.794921875 320 146.603515625 320 c 0
 91.412109375 320 46.603515625 364.80859375 46.603515625 420 c 0
 46.603515625 475.19140625 91.412109375 520 146.603515625 520 c 0
 201.794921875 520 246.603515625 475.19140625 246.603515625 420 c 0
46.603515625 80 m 0
 46.603515625 135.19140625 91.412109375 180 146.603515625 180 c 0
 201.794921875 180 246.603515625 135.19140625 246.603515625 80 c 0
 246.603515625 66.5927734375 243.916015625 53.7353515625 239.12109375 42.046875 c 2
 170.953125 -145.240234375 l 1
 30 -93.9375 l 1
 69.939453125 15.79296875 l 1
 55.3935546875 33.1611328125 46.603515625 55.595703125 46.603515625 80 c 0
EndSplineSet
EndChar

StartChar: less
Encoding: 60 60 81
Width: 567
Flags: HW
LayerCount: 2
Fore
SplineSet
468.970703125 673 m 5
 537.205078125 545.05859375 l 5
 218.1796875 374.912109375 l 5
 537.205078125 204.765625 l 5
 468.970703125 76.82421875 l 5
 30 310.94140625 l 5
 30 438.8828125 l 5
 468.970703125 673 l 5
EndSplineSet
EndChar

StartChar: greater
Encoding: 62 62 82
Width: 567
Flags: HWO
LayerCount: 2
Fore
SplineSet
98.234375 673 m 5
 30 545.05859375 l 5
 349.025390625 374.912109375 l 5
 30 204.765625 l 5
 98.234375 76.82421875 l 5
 537.205078125 310.94140625 l 5
 537.205078125 438.8828125 l 5
 98.234375 673 l 5
EndSplineSet
EndChar
